<mxfile host="app.diagrams.net" modified="2024-06-14T11:17:43.381Z" agent="Mozilla/5.0 (Windows NT 10.0; Win64; x64; rv:126.0) Gecko/20100101 Firefox/126.0" etag="9lnoYWt411xTkpqA9wWg" version="24.5.4" type="device">
  <diagram name="Page-1" id="86ppqP7SXF_7jWmYhEEW">
    <mxGraphModel dx="1050" dy="491" grid="1" gridSize="10" guides="1" tooltips="1" connect="1" arrows="1" fold="1" page="1" pageScale="1" pageWidth="850" pageHeight="1100" math="0" shadow="0">
      <root>
        <mxCell id="0" />
        <mxCell id="1" parent="0" />
        <mxCell id="6nUPle8mx3s91zc0t7p0-1" value="FODS" style="rounded=1;whiteSpace=wrap;html=1;" parent="1" vertex="1">
          <mxGeometry x="780" y="740" width="120" height="60" as="geometry" />
        </mxCell>
        <mxCell id="6nUPle8mx3s91zc0t7p0-2" value="" style="endArrow=classic;html=1;rounded=0;" parent="1" edge="1">
          <mxGeometry width="50" height="50" relative="1" as="geometry">
            <mxPoint x="420" y="770" as="sourcePoint" />
            <mxPoint x="780" y="769.5" as="targetPoint" />
          </mxGeometry>
        </mxCell>
        <mxCell id="6nUPle8mx3s91zc0t7p0-3" value="Electrical Energy" style="text;html=1;align=center;verticalAlign=middle;resizable=0;points=[];autosize=1;strokeColor=none;fillColor=none;" parent="1" vertex="1">
          <mxGeometry x="420" y="740" width="110" height="30" as="geometry" />
        </mxCell>
        <mxCell id="6nUPle8mx3s91zc0t7p0-4" value="" style="endArrow=classic;html=1;rounded=0;" parent="1" edge="1">
          <mxGeometry width="50" height="50" relative="1" as="geometry">
            <mxPoint x="900" y="769.5" as="sourcePoint" />
            <mxPoint x="1260" y="769" as="targetPoint" />
          </mxGeometry>
        </mxCell>
        <mxCell id="6nUPle8mx3s91zc0t7p0-5" value="Electrical Energy" style="text;html=1;align=center;verticalAlign=middle;resizable=0;points=[];autosize=1;strokeColor=none;fillColor=none;" parent="1" vertex="1">
          <mxGeometry x="1130" y="740" width="110" height="30" as="geometry" />
        </mxCell>
        <mxCell id="6nUPle8mx3s91zc0t7p0-6" value="Sensors" style="rounded=1;whiteSpace=wrap;html=1;" parent="1" vertex="1">
          <mxGeometry x="1050" y="560" width="120" height="60" as="geometry" />
        </mxCell>
        <mxCell id="6nUPle8mx3s91zc0t7p0-9" value="Obstacle" style="rounded=1;whiteSpace=wrap;html=1;" parent="1" vertex="1">
          <mxGeometry x="1215" y="560" width="120" height="60" as="geometry" />
        </mxCell>
        <mxCell id="6nUPle8mx3s91zc0t7p0-10" value="" style="whiteSpace=wrap;html=1;aspect=fixed;" parent="1" vertex="1">
          <mxGeometry x="755" y="400" width="210" height="210" as="geometry" />
        </mxCell>
        <mxCell id="6nUPle8mx3s91zc0t7p0-11" value="Environment mapping" style="rounded=0;whiteSpace=wrap;html=1;" parent="1" vertex="1">
          <mxGeometry x="800" y="424" width="120" height="30" as="geometry" />
        </mxCell>
        <mxCell id="6nUPle8mx3s91zc0t7p0-12" value="Data logger" style="rounded=0;whiteSpace=wrap;html=1;" parent="1" vertex="1">
          <mxGeometry x="800" y="470" width="120" height="30" as="geometry" />
        </mxCell>
        <mxCell id="6nUPle8mx3s91zc0t7p0-13" value="Obstacle detection" style="rounded=0;whiteSpace=wrap;html=1;" parent="1" vertex="1">
          <mxGeometry x="800" y="515" width="120" height="30" as="geometry" />
        </mxCell>
        <mxCell id="6nUPle8mx3s91zc0t7p0-14" value="Communication Network" style="rounded=0;whiteSpace=wrap;html=1;" parent="1" vertex="1">
          <mxGeometry x="800" y="560" width="120" height="30" as="geometry" />
        </mxCell>
        <mxCell id="6nUPle8mx3s91zc0t7p0-15" value="GPS Mapper" style="ellipse;shape=cloud;whiteSpace=wrap;html=1;" parent="1" vertex="1">
          <mxGeometry x="1070" y="320" width="120" height="80" as="geometry" />
        </mxCell>
        <mxCell id="6nUPle8mx3s91zc0t7p0-17" value="&lt;div&gt;AI/ML&lt;/div&gt;&lt;div&gt;Logic&lt;br&gt;&lt;/div&gt;" style="ellipse;shape=cloud;whiteSpace=wrap;html=1;" parent="1" vertex="1">
          <mxGeometry x="570" y="290" width="120" height="80" as="geometry" />
        </mxCell>
        <mxCell id="6nUPle8mx3s91zc0t7p0-18" value="&lt;div&gt;Communication &lt;br&gt;&lt;/div&gt;&lt;div&gt;Network&lt;br&gt;&lt;/div&gt;" style="ellipse;shape=cloud;whiteSpace=wrap;html=1;" parent="1" vertex="1">
          <mxGeometry x="520" y="410" width="120" height="80" as="geometry" />
        </mxCell>
        <mxCell id="6nUPle8mx3s91zc0t7p0-19" value="Microcontroller" style="text;html=1;align=center;verticalAlign=middle;whiteSpace=wrap;rounded=0;" parent="1" vertex="1">
          <mxGeometry x="830" y="400" width="60" height="30" as="geometry" />
        </mxCell>
        <mxCell id="6nUPle8mx3s91zc0t7p0-20" value="Alert Manager" style="rounded=1;whiteSpace=wrap;html=1;" parent="1" vertex="1">
          <mxGeometry x="510" y="630" width="120" height="60" as="geometry" />
        </mxCell>
        <mxCell id="6nUPle8mx3s91zc0t7p0-21" value="" style="endArrow=none;dashed=1;html=1;rounded=0;entryX=0.458;entryY=1.033;entryDx=0;entryDy=0;entryPerimeter=0;exitX=1.007;exitY=0.172;exitDx=0;exitDy=0;exitPerimeter=0;" parent="1" source="6nUPle8mx3s91zc0t7p0-1" target="6nUPle8mx3s91zc0t7p0-6" edge="1">
          <mxGeometry width="50" height="50" relative="1" as="geometry">
            <mxPoint x="920" y="750" as="sourcePoint" />
            <mxPoint x="970" y="700" as="targetPoint" />
            <Array as="points">
              <mxPoint x="1105" y="750" />
            </Array>
          </mxGeometry>
        </mxCell>
        <mxCell id="g0KVfHxhDFFT0jHYSyau-1" value="" style="endArrow=none;dashed=1;html=1;dashPattern=1 3;strokeWidth=2;rounded=0;exitX=0.96;exitY=0.7;exitDx=0;exitDy=0;exitPerimeter=0;" edge="1" parent="1" source="6nUPle8mx3s91zc0t7p0-18">
          <mxGeometry width="50" height="50" relative="1" as="geometry">
            <mxPoint x="638.2" y="476" as="sourcePoint" />
            <mxPoint x="803" y="575" as="targetPoint" />
            <Array as="points">
              <mxPoint x="635" y="575" />
            </Array>
          </mxGeometry>
        </mxCell>
        <mxCell id="g0KVfHxhDFFT0jHYSyau-2" value="" style="endArrow=none;dashed=1;html=1;dashPattern=1 3;strokeWidth=2;rounded=0;entryX=0.083;entryY=0.75;entryDx=0;entryDy=0;entryPerimeter=0;exitX=1;exitY=0.5;exitDx=0;exitDy=0;" edge="1" parent="1" source="6nUPle8mx3s91zc0t7p0-11" target="6nUPle8mx3s91zc0t7p0-15">
          <mxGeometry width="50" height="50" relative="1" as="geometry">
            <mxPoint x="910" y="570" as="sourcePoint" />
            <mxPoint x="960" y="520" as="targetPoint" />
            <Array as="points">
              <mxPoint x="1080" y="440" />
            </Array>
          </mxGeometry>
        </mxCell>
        <mxCell id="g0KVfHxhDFFT0jHYSyau-3" value="" style="endArrow=none;dashed=1;html=1;dashPattern=1 3;strokeWidth=2;rounded=0;entryX=0;entryY=0.5;entryDx=0;entryDy=0;exitX=0.8;exitY=0.8;exitDx=0;exitDy=0;exitPerimeter=0;" edge="1" parent="1" source="6nUPle8mx3s91zc0t7p0-17" target="6nUPle8mx3s91zc0t7p0-13">
          <mxGeometry width="50" height="50" relative="1" as="geometry">
            <mxPoint x="640" y="370" as="sourcePoint" />
            <mxPoint x="690" y="320" as="targetPoint" />
            <Array as="points">
              <mxPoint x="666" y="530" />
            </Array>
          </mxGeometry>
        </mxCell>
        <mxCell id="g0KVfHxhDFFT0jHYSyau-4" value="" style="endArrow=none;dashed=1;html=1;dashPattern=1 3;strokeWidth=2;rounded=0;entryX=0;entryY=0.75;entryDx=0;entryDy=0;exitX=0.5;exitY=0;exitDx=0;exitDy=0;" edge="1" parent="1" source="6nUPle8mx3s91zc0t7p0-20" target="6nUPle8mx3s91zc0t7p0-14">
          <mxGeometry width="50" height="50" relative="1" as="geometry">
            <mxPoint x="670" y="645" as="sourcePoint" />
            <mxPoint x="720" y="595" as="targetPoint" />
            <Array as="points">
              <mxPoint x="570" y="583" />
            </Array>
          </mxGeometry>
        </mxCell>
        <mxCell id="g0KVfHxhDFFT0jHYSyau-5" value="" style="endArrow=none;dashed=1;html=1;dashPattern=1 3;strokeWidth=2;rounded=0;entryX=0;entryY=0.25;entryDx=0;entryDy=0;exitX=0.5;exitY=1;exitDx=0;exitDy=0;" edge="1" parent="1">
          <mxGeometry width="50" height="50" relative="1" as="geometry">
            <mxPoint x="570" y="689" as="sourcePoint" />
            <mxPoint x="780" y="754" as="targetPoint" />
            <Array as="points">
              <mxPoint x="570" y="754" />
            </Array>
          </mxGeometry>
        </mxCell>
        <mxCell id="g0KVfHxhDFFT0jHYSyau-6" value="Database" style="ellipse;shape=cloud;whiteSpace=wrap;html=1;" vertex="1" parent="1">
          <mxGeometry x="660" y="230" width="120" height="80" as="geometry" />
        </mxCell>
        <mxCell id="g0KVfHxhDFFT0jHYSyau-7" value="" style="endArrow=none;dashed=1;html=1;rounded=0;entryX=0.55;entryY=0.95;entryDx=0;entryDy=0;entryPerimeter=0;exitX=0;exitY=0.5;exitDx=0;exitDy=0;" edge="1" parent="1" source="6nUPle8mx3s91zc0t7p0-12" target="g0KVfHxhDFFT0jHYSyau-6">
          <mxGeometry width="50" height="50" relative="1" as="geometry">
            <mxPoint x="690" y="380" as="sourcePoint" />
            <mxPoint x="740" y="330" as="targetPoint" />
            <Array as="points">
              <mxPoint x="726" y="485" />
            </Array>
          </mxGeometry>
        </mxCell>
        <mxCell id="g0KVfHxhDFFT0jHYSyau-8" value="" style="endArrow=none;dashed=1;html=1;rounded=0;entryX=0.5;entryY=0;entryDx=0;entryDy=0;exitX=1;exitY=0.5;exitDx=0;exitDy=0;" edge="1" parent="1" source="6nUPle8mx3s91zc0t7p0-13" target="6nUPle8mx3s91zc0t7p0-6">
          <mxGeometry width="50" height="50" relative="1" as="geometry">
            <mxPoint x="1000" y="530" as="sourcePoint" />
            <mxPoint x="1050" y="480" as="targetPoint" />
            <Array as="points">
              <mxPoint x="1110" y="530" />
            </Array>
          </mxGeometry>
        </mxCell>
        <mxCell id="g0KVfHxhDFFT0jHYSyau-9" value="" style="endArrow=classic;html=1;rounded=0;entryX=1;entryY=0.5;entryDx=0;entryDy=0;" edge="1" parent="1" source="6nUPle8mx3s91zc0t7p0-9" target="6nUPle8mx3s91zc0t7p0-6">
          <mxGeometry width="50" height="50" relative="1" as="geometry">
            <mxPoint x="1310" y="520" as="sourcePoint" />
            <mxPoint x="1360" y="470" as="targetPoint" />
          </mxGeometry>
        </mxCell>
        <mxCell id="g0KVfHxhDFFT0jHYSyau-10" value="Stakeholder" style="shape=umlActor;verticalLabelPosition=bottom;verticalAlign=top;html=1;outlineConnect=0;" vertex="1" parent="1">
          <mxGeometry x="395" y="630" width="30" height="60" as="geometry" />
        </mxCell>
        <mxCell id="g0KVfHxhDFFT0jHYSyau-12" value="" style="endArrow=classic;html=1;rounded=0;" edge="1" parent="1" target="g0KVfHxhDFFT0jHYSyau-10">
          <mxGeometry width="50" height="50" relative="1" as="geometry">
            <mxPoint x="500" y="660" as="sourcePoint" />
            <mxPoint x="530" y="560" as="targetPoint" />
            <Array as="points" />
          </mxGeometry>
        </mxCell>
      </root>
    </mxGraphModel>
  </diagram>
</mxfile>
